# xmcd CD database file
#
# Track frame offsets:
#	150
#	11006
#	26507
#	36038
#	44360
#	54268
#	66418
#
# Disc length: 1055 seconds
#
# Revision: 0
# Processed by: cddbd v1.5.2PL0 Copyright (c) Steve Scherf et al.
# Submitted via: CDex 1.70beta2
#
DISCID=54041d07
DTITLE=Maja - Maja
DYEAR=1900
DGENRE=Jazz
TTITLE0=Like Someone in Love
TTITLE1=Ain't Got Nothing But The Blues
TTITLE2=Pick Yourself Up
TTITLE3=One Not Samba
TTITLE4=When I Fall In Love
TTITLE5=I Could Write A Book
TTITLE6=Just The Way You Are
EXTD=
EXTT0=
EXTT1=
EXTT2=
EXTT3=
EXTT4=
EXTT5=
EXTT6=
PLAYORDER=
